<?xml version="1.0" standalone="no"?>
<!DOCTYPE svg PUBLIC "-//W3C//DTD SVG 20010904//EN"
 "http://www.w3.org/TR/2001/REC-SVG-20010904/DTD/svg10.dtd">
<svg version="1.0" xmlns="http://www.w3.org/2000/svg"
 width="1040.000000pt" height="1040.000000pt" viewBox="0 0 1040.000000 1040.000000"
 preserveAspectRatio="xMidYMid meet">
<metadata>
Created by potrace 1.11, written by Peter Selinger 2001-2013
</metadata>
<g transform="translate(0.000000,1040.000000) scale(0.100000,-0.100000)"
fill="#000000" stroke="none">
<path d="M8065 9053 c-82 -104 -155 -195 -162 -203 -6 -8 -23 -29 -37 -46 -14
-17 -203 -253 -421 -525 -217 -272 -402 -501 -409 -510 -7 -9 -76 -94 -152
-190 -76 -96 -141 -176 -144 -179 -4 -3 -57 -70 -120 -150 -63 -80 -117 -147
-120 -150 -4 -4 -53 -64 -100 -124 -51 -64 -50 -64 -93 -15 -37 41 -229 271
-322 383 -22 27 -47 56 -55 65 -9 9 -36 41 -60 71 -25 30 -47 57 -50 60 -3 3
-39 46 -80 95 -41 50 -77 92 -80 95 -3 3 -48 57 -100 120 -52 63 -105 126
-117 140 -12 14 -36 43 -55 66 -18 23 -89 108 -158 189 -69 81 -136 162 -150
179 -13 17 -31 39 -40 48 -8 9 -91 109 -185 222 -93 112 -174 205 -180 205 -5
0 -32 -34 -58 -77 -26 -42 -103 -162 -172 -267 -68 -104 -162 -248 -208 -320
-95 -148 -142 -219 -633 -975 -194 -300 -358 -552 -364 -560 -11 -16 -170
-261 -344 -530 -59 -91 -173 -266 -254 -390 -81 -124 -172 -264 -202 -310 -54
-84 -158 -244 -295 -455 -73 -112 -202 -310 -260 -400 -18 -27 -76 -117 -130
-200 -54 -82 -143 -220 -198 -305 -55 -85 -138 -213 -185 -285 -47 -71 -99
-152 -117 -180 -18 -27 -126 -192 -240 -365 -114 -173 -235 -362 -268 -420
-33 -58 -79 -134 -102 -170 -23 -36 -55 -90 -71 -120 -16 -30 -32 -57 -35 -60
-3 -3 -54 -95 -113 -205 -149 -276 -345 -680 -371 -765 l-8 -25 24 20 c106 90
222 199 363 341 175 175 263 268 361 379 39 43 79 88 90 100 11 11 43 47 70
79 28 33 57 66 66 75 59 60 229 276 296 376 82 122 412 623 464 705 16 25 34
52 39 60 6 8 41 62 79 120 37 58 166 256 287 440 120 184 228 351 241 370 12
19 32 49 43 65 12 17 44 66 72 110 48 75 516 794 749 1150 58 88 134 205 169
260 36 54 93 141 126 192 l61 93 96 -95 95 -96 235 236 c129 129 241 235 248
235 8 0 44 -29 80 -63 36 -34 101 -93 144 -132 43 -38 89 -79 102 -91 115
-105 250 -225 257 -227 4 -2 87 69 152 128 12 11 50 45 84 75 34 30 72 64 84
75 12 11 55 49 96 85 40 36 78 70 84 75 57 51 49 51 113 2 32 -25 182 -137
334 -250 l276 -205 169 -222 c177 -232 477 -620 525 -679 l28 -34 -48 -61
c-441 -562 -939 -1247 -1304 -1791 -240 -359 -320 -483 -407 -630 -22 -38 -49
-83 -59 -100 -179 -296 -501 -899 -487 -912 2 -3 37 22 78 55 324 263 861 797
1333 1326 6 6 30 34 55 61 25 28 72 81 105 119 33 38 65 74 70 80 6 6 35 40
65 76 30 36 58 67 61 70 3 3 61 70 128 150 68 80 135 159 149 176 15 17 43 50
62 74 19 24 40 48 45 54 6 6 28 34 50 61 22 28 42 52 45 55 3 3 35 41 70 85
36 43 75 91 87 105 11 14 64 79 117 145 53 66 107 134 121 150 13 17 37 47 54
68 16 21 32 39 34 40 4 2 67 -73 190 -228 18 -21 57 -69 87 -106 30 -36 73
-88 95 -115 171 -207 615 -733 660 -780 5 -6 35 -40 65 -75 139 -161 439 -493
610 -674 41 -44 183 -188 315 -320 200 -201 283 -280 429 -410 66 -59 165
-142 225 -189 89 -71 89 -72 -20 149 -270 549 -736 1286 -1368 2160 -119 166
-151 215 -147 235 2 14 9 54 15 90 6 36 13 76 16 90 7 44 34 203 41 244 3 21
8 48 10 60 8 36 12 57 34 186 11 69 32 188 46 265 31 171 31 175 33 203 1 21
4 22 44 17 32 -5 73 3 167 31 69 20 158 44 198 54 l72 17 6 -21 c4 -18 11 -22
35 -18 28 4 30 7 27 40 -3 33 10 48 45 51 12 1 -2 -56 -23 -94 -30 -53 -32
-83 -9 -106 14 -14 31 -19 56 -17 36 3 37 4 55 73 36 133 36 130 -19 140 -19
3 -19 22 0 42 7 6 50 32 97 56 61 32 94 57 118 88 18 24 51 67 73 94 21 28 48
68 58 90 33 68 44 178 21 219 -21 41 -9 53 46 46 99 -12 171 24 195 98 15 46
5 138 -18 164 -24 27 -87 58 -115 57 -13 0 -52 -2 -88 -2 -42 -1 -64 -6 -63
-13 2 -10 -32 -23 -70 -28 -5 -1 -14 -9 -21 -18 -12 -17 -14 -17 -30 0 -9 10
-16 27 -16 38 0 10 -7 41 -15 68 -8 27 -14 72 -14 100 2 57 -5 99 -28 166 -8
25 -17 65 -19 90 -3 25 -7 50 -9 57 -2 7 -7 52 -11 100 -9 111 -24 157 -53
161 -21 3 -21 4 8 40 66 83 244 266 345 356 38 33 74 66 81 73 26 25 193 140
240 165 118 62 223 84 310 65 l30 -7 -25 14 c-78 44 -215 71 -344 68 -94 -2
-265 -43 -379 -90 l-96 -39 -622 623 c-342 343 -624 624 -628 624 -3 0 -74
-84 -156 -187z m294 -874 l171 -170 53 37 c28 21 84 61 122 89 39 28 76 54 82
58 8 5 78 -59 198 -180 102 -103 185 -190 185 -193 0 -3 -26 -23 -57 -45 -57
-40 -244 -187 -274 -215 -8 -8 -51 -46 -94 -85 -178 -158 -412 -402 -629 -655
-125 -146 -127 -148 -215 -255 -41 -50 -80 -94 -85 -100 -6 -5 -31 -35 -56
-65 -25 -30 -49 -60 -55 -66 -5 -7 -17 -20 -25 -30 -9 -11 -73 -89 -144 -174
-70 -85 -144 -175 -164 -199 -21 -24 -48 -59 -62 -77 -14 -18 -29 -33 -35 -33
-5 0 -26 21 -45 46 -19 26 -40 51 -45 57 -6 6 -40 47 -75 91 -56 69 -186 226
-252 304 -11 13 -68 80 -126 150 -58 69 -119 140 -134 156 -15 17 -28 32 -28
36 0 4 369 464 434 539 11 14 48 59 81 100 33 41 67 84 77 95 9 11 148 182
309 380 160 198 295 364 300 369 5 5 23 -2 43 -17 19 -15 37 -27 41 -27 6 0
99 73 248 193 39 31 74 57 78 57 4 0 84 -77 178 -171z m915 -996 c3 -37 5
-102 4 -143 0 -41 -1 -108 -2 -148 -1 -39 -4 -72 -7 -72 -3 0 -13 33 -24 73
-10 39 -21 79 -26 87 -4 9 -9 45 -10 80 -1 36 -11 84 -21 108 l-19 43 31 39
c30 38 31 39 50 20 13 -13 20 -39 24 -87z m-188 -133 c-3 -37 0 -55 17 -81 12
-19 23 -38 23 -44 1 -5 5 -32 9 -59 3 -27 8 -52 10 -55 1 -3 6 -22 9 -41 9
-57 37 -144 52 -160 11 -13 18 -50 28 -150 1 -9 4 -20 7 -25 5 -8 5 -85 0
-120 0 -6 -17 -35 -36 -65 -19 -30 -35 -65 -35 -77 0 -31 -23 -103 -32 -103
-5 0 -8 35 -9 78 0 42 -3 90 -5 107 -9 54 -54 220 -66 243 -26 50 -126 64
-156 21 -14 -21 -15 -20 -42 34 -15 31 -30 73 -33 94 -4 21 -16 44 -27 53 -21
16 -19 19 117 199 76 101 142 190 148 197 17 23 26 3 21 -46z m-292 -395 c3
-9 0 -15 -9 -15 -16 0 -27 14 -18 24 10 10 21 7 27 -9z m-40 -87 c-3 -13 -7
-34 -9 -48 -4 -22 -11 -60 -40 -205 -6 -34 -64 -148 -77 -153 -4 -2 -8 -10 -8
-17 0 -20 -57 -102 -77 -109 -9 -4 -19 -2 -22 3 -3 5 -40 27 -81 48 -41 22
-75 42 -75 45 0 3 83 120 184 261 l185 257 12 -30 c7 -16 11 -40 8 -52z m106
-102 c0 -5 -16 -23 -35 -40 -46 -42 -65 -57 -65 -54 0 2 5 30 11 63 5 33 12
77 15 99 2 21 7 43 11 49 6 10 62 -95 63 -117z m-64 -442 c0 -47 1 -88 3 -90
23 -23 -12 -61 -97 -103 l-43 -22 6 26 c3 14 8 37 11 53 3 15 8 47 11 71 4 35
15 53 57 96 28 30 52 54 52 54 1 1 1 -38 0 -85z m-450 -68 c14 -16 31 -43 39
-60 19 -44 80 -106 105 -106 31 0 91 44 118 87 l24 38 -7 -35 c-4 -19 -8 -45
-9 -58 -3 -31 -42 -65 -101 -87 -86 -30 -139 -57 -161 -79 -19 -19 -42 -74
-48 -111 -1 -8 -9 -22 -18 -32 -9 -10 -32 -53 -53 -96 -41 -87 -96 -152 -139
-163 -15 -3 -30 -13 -33 -20 -3 -8 -20 -23 -39 -34 -22 -14 -37 -33 -44 -58
-23 -82 -11 -99 64 -88 63 10 176 98 176 137 0 16 21 35 162 147 50 39 105
130 95 157 -8 19 10 30 51 31 37 2 37 3 18 -96 -8 -41 -17 -95 -21 -120 -4
-25 -13 -74 -20 -110 -7 -36 -16 -87 -19 -113 -3 -27 -8 -52 -10 -56 -3 -4 -7
-25 -10 -47 -2 -21 -7 -50 -10 -64 -3 -14 -8 -43 -10 -65 -3 -22 -7 -49 -9
-60 -3 -11 -10 -51 -16 -90 -17 -108 -19 -120 -21 -120 -2 0 -7 -22 -14 -70
-20 -124 3 -141 -231 171 -115 153 -212 281 -215 284 -3 3 -28 34 -55 70 -27
36 -52 67 -55 70 -3 3 -33 41 -66 85 l-61 81 194 249 c107 138 238 308 291
378 l97 128 18 -23 c10 -13 29 -36 43 -52z m787 -346 c-7 -8 -22 24 -16 34 4
5 10 1 13 -10 4 -10 6 -21 3 -24z"/>
<path d="M8820 6740 c-8 -5 -12 -11 -9 -14 3 -3 14 1 25 9 21 16 8 20 -16 5z"/>
</g>
</svg>
